<svg width="1200" height="340" viewBox="0 0 1200 340" fill="none" xmlns="http://www.w3.org/2000/svg">
  <defs>
    <linearGradient id="bg" x1="0" y1="0" x2="1200" y2="340" gradientUnits="userSpaceOnUse">
      <stop stop-color="#07111F"/>
      <stop offset="1" stop-color="#0C2444"/>
    </linearGradient>
    <linearGradient id="cyanBlue" x1="40" y1="40" x2="1160" y2="300" gradientUnits="userSpaceOnUse">
      <stop stop-color="#35D0FF"/>
      <stop offset="1" stop-color="#4D68FF"/>
    </linearGradient>
    <filter id="glow" x="-20%" y="-20%" width="140%" height="140%">
      <feGaussianBlur stdDeviation="8" result="blur"/>
      <feMerge>
        <feMergeNode in="blur"/>
        <feMergeNode in="SourceGraphic"/>
      </feMerge>
    </filter>
  </defs>
  <rect x="1" y="1" width="1198" height="338" rx="28" fill="url(#bg)" stroke="url(#cyanBlue)" stroke-opacity="0.45"/>
  <circle cx="1060" cy="70" r="120" fill="#35D0FF" fill-opacity="0.06"/>
  <circle cx="1120" cy="280" r="140" fill="#4D68FF" fill-opacity="0.08"/>
  <circle cx="160" cy="50" r="100" fill="#35D0FF" fill-opacity="0.04"/>
  <rect x="52" y="52" width="188" height="188" rx="34" fill="#0B1E39" stroke="url(#cyanBlue)"/>
  <path d="M91 116C113 88 158 83 189 101" stroke="#35D0FF" stroke-width="5" stroke-linecap="round" filter="url(#glow)"/>
  <path d="M99 135C120 114 153 111 176 124" stroke="#35D0FF" stroke-width="4" stroke-linecap="round" opacity="0.85"/>
  <text x="92" y="175" fill="#F4F8FF" font-size="64" font-family="Arial, Helvetica, sans-serif" font-weight="700">WS</text>
  <path d="M136 190V214" stroke="#F4F8FF" stroke-width="8" stroke-linecap="round"/>
  <path d="M121 210C129 203 143 203 151 210" stroke="#35D0FF" stroke-width="5" stroke-linecap="round"/>
  <path d="M115 218C126 206 146 206 157 218" stroke="#35D0FF" stroke-width="4" stroke-linecap="round" opacity="0.85"/>
  <text x="286" y="120" fill="#FFFFFF" font-size="58" font-family="Arial, Helvetica, sans-serif" font-weight="700">WiFi Speaker</text>
  <text x="286" y="166" fill="#B9CAE3" font-size="28" font-family="Arial, Helvetica, sans-serif">Android Receiver + Windows Launcher</text>
  <text x="286" y="214" fill="#DDE8FF" font-size="22" font-family="Arial, Helvetica, sans-serif">Áudio do PC para o Android via Wi‑Fi • gratuito • sem anúncios • tudo liberado</text>
  <rect x="286" y="245" width="162" height="40" rx="20" fill="#0F213B" stroke="#35D0FF" stroke-opacity="0.6"/>
  <text x="318" y="271" fill="#EAF2FF" font-size="18" font-family="Arial, Helvetica, sans-serif" font-weight="700">by SrMoraes</text>
  <rect x="466" y="245" width="230" height="40" rx="20" fill="#0F213B" stroke="#4D68FF" stroke-opacity="0.7"/>
  <text x="492" y="271" fill="#EAF2FF" font-size="18" font-family="Arial, Helvetica, sans-serif" font-weight="700">youtube.com/@srmoraesbrasil</text>
</svg>
